<mxfile host="65bd71144e" modified="2021-02-03T02:46:29.811Z" agent="5.0 (Windows NT 10.0; Win64; x64) AppleWebKit/537.36 (KHTML, like Gecko) Code/1.52.1 Chrome/83.0.4103.122 Electron/9.3.5 Safari/537.36" version="13.10.0" etag="E6xfSzladADNoOw19kr0" type="embed">
    <diagram id="hsh0v4iKcz9foi3Ss8kc" name="第 1 页">
        <mxGraphModel dx="317" dy="-270" grid="1" gridSize="10" guides="1" tooltips="1" connect="1" arrows="1" fold="1" page="1" pageScale="1" pageWidth="500" pageHeight="500" background="none" math="0" shadow="0">
            <root>
                <mxCell id="0"/>
                <mxCell id="1" parent="0"/>
                <mxCell id="2" value="" style="ellipse;whiteSpace=wrap;html=1;aspect=fixed;" vertex="1" parent="1">
                    <mxGeometry y="500" width="500" height="500" as="geometry"/>
                </mxCell>
                <mxCell id="11" value="" style="line;strokeWidth=31;direction=south;html=1;" vertex="1" parent="1">
                    <mxGeometry x="113" y="606" width="1" height="288" as="geometry"/>
                </mxCell>
                <mxCell id="12" value="" style="line;strokeWidth=30;html=1;rotation=45;direction=south;" vertex="1" parent="1">
                    <mxGeometry x="250" y="562" width="1" height="376" as="geometry"/>
                </mxCell>
                <mxCell id="13" value="" style="line;strokeWidth=31;direction=south;html=1;rotation=135;" vertex="1" parent="1">
                    <mxGeometry x="250" y="562" width="1" height="376" as="geometry"/>
                </mxCell>
            </root>
        </mxGraphModel>
    </diagram>
</mxfile>